<svg height="480.4" version="1.1" width="640.4000000000001" xmlns="http://www.w3.org/2000/svg" style="overflow: hidden; position: relative; top: -0.716667px;"><desc>Created with Raphaël 2.0.1</desc><defs></defs><rect x="0" y="0" width="640.4000000000001" height="480.4" r="0" rx="0" ry="0" fill="#bc8220" stroke="none" style="--darkreader-inline-fill: #946f30; --darkreader-inline-stroke: none;" data-darkreader-inline-fill="" data-darkreader-inline-stroke=""></rect><rect x="367" y="246" width="297" height="120" r="5" rx="5" ry="5" fill="#d23351" stroke="#36ac0b" transform="matrix(1,0,0,1,-148.5,-60)" style="opacity: 0.63; --darkreader-inline-fill: #923540; --darkreader-inline-stroke: #a7ef72;" stroke-width="25" opacity="0.63" data-darkreader-inline-fill="" data-darkreader-inline-stroke=""></rect><rect x="280" y="349" width="145" height="190" r="5" rx="5" ry="5" fill="#d23351" stroke="#36ac0b" transform="matrix(1,0,0,1,-72.5,-95)" style="opacity: 0.63; --darkreader-inline-fill: #923540; --darkreader-inline-stroke: #a7ef72;" stroke-width="25" opacity="0.63" data-darkreader-inline-fill="" data-darkreader-inline-stroke=""></rect><rect x="372" y="384" width="57" height="241" r="5" rx="5" ry="5" fill="#d23351" stroke="#36ac0b" transform="matrix(1,0,0,1,-28.5,-120.5)" style="opacity: 0.63; --darkreader-inline-fill: #923540; --darkreader-inline-stroke: #a7ef72;" stroke-width="25" opacity="0.63" data-darkreader-inline-fill="" data-darkreader-inline-stroke=""></rect><rect x="336" y="267" width="31" height="270" r="5" rx="5" ry="5" fill="#d23351" stroke="#36ac0b" transform="matrix(1,0,0,1,-15.5,-135)" style="opacity: 0.63; --darkreader-inline-fill: #923540; --darkreader-inline-stroke: #a7ef72;" stroke-width="25" opacity="0.63" data-darkreader-inline-fill="" data-darkreader-inline-stroke=""></rect><rect x="281" y="330" width="175" height="239" r="5" rx="5" ry="5" fill="#d23351" stroke="#36ac0b" transform="matrix(1,0,0,1,-87.5,-119.5)" style="opacity: 0.63; --darkreader-inline-fill: #923540; --darkreader-inline-stroke: #a7ef72;" stroke-width="25" opacity="0.63" data-darkreader-inline-fill="" data-darkreader-inline-stroke=""></rect><rect x="290" y="386" width="64" height="92" r="5" rx="5" ry="5" fill="#d23351" stroke="#36ac0b" transform="matrix(1,0,0,1,-32,-46)" style="opacity: 0.63; --darkreader-inline-fill: #923540; --darkreader-inline-stroke: #a7ef72;" stroke-width="25" opacity="0.63" data-darkreader-inline-fill="" data-darkreader-inline-stroke=""></rect><rect x="400" y="255" width="128" height="207" r="5" rx="5" ry="5" fill="#d23351" stroke="#36ac0b" transform="matrix(1,0,0,1,-64,-103.5)" style="opacity: 0.63; --darkreader-inline-fill: #923540; --darkreader-inline-stroke: #a7ef72;" stroke-width="25" opacity="0.63" data-darkreader-inline-fill="" data-darkreader-inline-stroke=""></rect><rect x="337" y="195" width="196" height="124" r="5" rx="5" ry="5" fill="#d23351" stroke="#36ac0b" transform="matrix(1,0,0,1,-98,-62)" style="opacity: 0.63; --darkreader-inline-fill: #923540; --darkreader-inline-stroke: #a7ef72;" stroke-width="25" opacity="0.63" data-darkreader-inline-fill="" data-darkreader-inline-stroke=""></rect><rect x="387" y="463" width="93" height="175" r="5" rx="5" ry="5" fill="#d23351" stroke="#36ac0b" transform="matrix(1,0,0,1,-46.5,-87.5)" style="opacity: 0.63; --darkreader-inline-fill: #923540; --darkreader-inline-stroke: #a7ef72;" stroke-width="25" opacity="0.63" data-darkreader-inline-fill="" data-darkreader-inline-stroke=""></rect><rect x="394" y="403" width="142" height="316" r="5" rx="5" ry="5" fill="#d23351" stroke="#36ac0b" transform="matrix(1,0,0,1,-71,-158)" style="opacity: 0.63; --darkreader-inline-fill: #923540; --darkreader-inline-stroke: #a7ef72;" stroke-width="25" opacity="0.63" data-darkreader-inline-fill="" data-darkreader-inline-stroke=""></rect><rect x="270" y="486" width="64" height="37" r="5" rx="5" ry="5" fill="#d23351" stroke="#36ac0b" transform="matrix(1,0,0,1,-32,-18.5)" style="opacity: 0.63; --darkreader-inline-fill: #923540; --darkreader-inline-stroke: #a7ef72;" stroke-width="25" opacity="0.63" data-darkreader-inline-fill="" data-darkreader-inline-stroke=""></rect><rect x="340" y="231" width="304" height="258" r="5" rx="5" ry="5" fill="#d23351" stroke="#36ac0b" transform="matrix(1,0,0,1,-152,-129)" style="opacity: 0.63; --darkreader-inline-fill: #923540; --darkreader-inline-stroke: #a7ef72;" stroke-width="25" opacity="0.63" data-darkreader-inline-fill="" data-darkreader-inline-stroke=""></rect><rect x="335" y="161" width="170" height="171" r="5" rx="5" ry="5" fill="#d23351" stroke="#36ac0b" transform="matrix(1,0,0,1,-85,-85.5)" style="opacity: 0.63; --darkreader-inline-fill: #923540; --darkreader-inline-stroke: #a7ef72;" stroke-width="25" opacity="0.63" data-darkreader-inline-fill="" data-darkreader-inline-stroke=""></rect><rect x="330" y="426" width="296" height="165" r="5" rx="5" ry="5" fill="#d23351" stroke="#36ac0b" transform="matrix(1,0,0,1,-148,-82.5)" style="opacity: 0.63; --darkreader-inline-fill: #923540; --darkreader-inline-stroke: #a7ef72;" stroke-width="25" opacity="0.63" data-darkreader-inline-fill="" data-darkreader-inline-stroke=""></rect><rect x="260" y="436" width="293" height="236" r="5" rx="5" ry="5" fill="#d23351" stroke="#36ac0b" transform="matrix(1,0,0,1,-146.5,-118)" style="opacity: 0.63; --darkreader-inline-fill: #923540; --darkreader-inline-stroke: #a7ef72;" stroke-width="25" opacity="0.63" data-darkreader-inline-fill="" data-darkreader-inline-stroke=""></rect><rect x="246" y="333" width="122" height="317" r="5" rx="5" ry="5" fill="#d23351" stroke="#36ac0b" transform="matrix(1,0,0,1,-61,-158.5)" style="opacity: 0.63; --darkreader-inline-fill: #923540; --darkreader-inline-stroke: #a7ef72;" stroke-width="25" opacity="0.63" data-darkreader-inline-fill="" data-darkreader-inline-stroke=""></rect><rect x="281" y="57" width="280" height="209" r="5" rx="5" ry="5" fill="#d23351" stroke="#36ac0b" transform="matrix(1,0,0,1,-140,-104.5)" style="opacity: 0.63; --darkreader-inline-fill: #923540; --darkreader-inline-stroke: #a7ef72;" stroke-width="25" opacity="0.63" data-darkreader-inline-fill="" data-darkreader-inline-stroke=""></rect><rect x="281" y="310" width="39" height="261" r="5" rx="5" ry="5" fill="#d23351" stroke="#36ac0b" transform="matrix(1,0,0,1,-19.5,-130.5)" style="opacity: 0.63; --darkreader-inline-fill: #923540; --darkreader-inline-stroke: #a7ef72;" stroke-width="25" opacity="0.63" data-darkreader-inline-fill="" data-darkreader-inline-stroke=""></rect><rect x="383" y="11" width="42" height="141" r="5" rx="5" ry="5" fill="#d23351" stroke="#36ac0b" transform="matrix(1,0,0,1,-21,-70.5)" style="opacity: 0.63; --darkreader-inline-fill: #923540; --darkreader-inline-stroke: #a7ef72;" stroke-width="25" opacity="0.63" data-darkreader-inline-fill="" data-darkreader-inline-stroke=""></rect><rect x="392" y="284" width="21" height="163" r="5" rx="5" ry="5" fill="#d23351" stroke="#36ac0b" transform="matrix(1,0,0,1,-10.5,-81.5)" style="opacity: 0.63; --darkreader-inline-fill: #923540; --darkreader-inline-stroke: #a7ef72;" stroke-width="25" opacity="0.63" data-darkreader-inline-fill="" data-darkreader-inline-stroke=""></rect><rect x="396" y="362" width="199" height="230" r="5" rx="5" ry="5" fill="#d23351" stroke="#36ac0b" transform="matrix(1,0,0,1,-99.5,-115)" style="opacity: 0.63; --darkreader-inline-fill: #923540; --darkreader-inline-stroke: #a7ef72;" stroke-width="25" opacity="0.63" data-darkreader-inline-fill="" data-darkreader-inline-stroke=""></rect><rect x="404" y="343" width="291" height="240" r="5" rx="5" ry="5" fill="#d23351" stroke="#36ac0b" transform="matrix(1,0,0,1,-145.5,-120)" style="opacity: 0.63; --darkreader-inline-fill: #923540; --darkreader-inline-stroke: #a7ef72;" stroke-width="25" opacity="0.63" data-darkreader-inline-fill="" data-darkreader-inline-stroke=""></rect><rect x="253" y="489" width="212" height="178" r="5" rx="5" ry="5" fill="#d23351" stroke="#36ac0b" transform="matrix(1,0,0,1,-106,-89)" style="opacity: 0.63; --darkreader-inline-fill: #923540; --darkreader-inline-stroke: #a7ef72;" stroke-width="25" opacity="0.63" data-darkreader-inline-fill="" data-darkreader-inline-stroke=""></rect><rect x="372" y="252" width="151" height="79" r="5" rx="5" ry="5" fill="#d23351" stroke="#36ac0b" transform="matrix(1,0,0,1,-75.5,-39.5)" style="opacity: 0.63; --darkreader-inline-fill: #923540; --darkreader-inline-stroke: #a7ef72;" stroke-width="25" opacity="0.63" data-darkreader-inline-fill="" data-darkreader-inline-stroke=""></rect><rect x="367" y="523" width="88" height="271" r="5" rx="5" ry="5" fill="#d23351" stroke="#36ac0b" transform="matrix(1,0,0,1,-44,-135.5)" style="opacity: 0.63; --darkreader-inline-fill: #923540; --darkreader-inline-stroke: #a7ef72;" stroke-width="25" opacity="0.63" data-darkreader-inline-fill="" data-darkreader-inline-stroke=""></rect><rect x="258" y="33" width="242" height="211" r="5" rx="5" ry="5" fill="#d23351" stroke="#36ac0b" transform="matrix(1,0,0,1,-121,-105.5)" style="opacity: 0.63; --darkreader-inline-fill: #923540; --darkreader-inline-stroke: #a7ef72;" stroke-width="25" opacity="0.63" data-darkreader-inline-fill="" data-darkreader-inline-stroke=""></rect><rect x="260" y="409" width="224" height="77" r="5" rx="5" ry="5" fill="#d23351" stroke="#36ac0b" transform="matrix(1,0,0,1,-112,-38.5)" style="opacity: 0.63; --darkreader-inline-fill: #923540; --darkreader-inline-stroke: #a7ef72;" stroke-width="25" opacity="0.63" data-darkreader-inline-fill="" data-darkreader-inline-stroke=""></rect><rect x="377" y="110" width="208" height="288" r="5" rx="5" ry="5" fill="#d23351" stroke="#36ac0b" transform="matrix(1,0,0,1,-104,-144)" style="opacity: 0.63; --darkreader-inline-fill: #923540; --darkreader-inline-stroke: #a7ef72;" stroke-width="25" opacity="0.63" data-darkreader-inline-fill="" data-darkreader-inline-stroke=""></rect><rect x="263" y="96" width="234" height="231" r="5" rx="5" ry="5" fill="#d23351" stroke="#36ac0b" transform="matrix(1,0,0,1,-117,-115.5)" style="opacity: 0.63; --darkreader-inline-fill: #923540; --darkreader-inline-stroke: #a7ef72;" stroke-width="25" opacity="0.63" data-darkreader-inline-fill="" data-darkreader-inline-stroke=""></rect><rect x="339" y="288" width="284" height="271" r="5" rx="5" ry="5" fill="#d23351" stroke="#36ac0b" transform="matrix(1,0,0,1,-142,-135.5)" style="opacity: 0.63; --darkreader-inline-fill: #923540; --darkreader-inline-stroke: #a7ef72;" stroke-width="25" opacity="0.63" data-darkreader-inline-fill="" data-darkreader-inline-stroke=""></rect><rect x="325" y="-29" width="97" height="136" r="5" rx="5" ry="5" fill="#d23351" stroke="#36ac0b" transform="matrix(1,0,0,1,-48.5,-68)" style="opacity: 0.63; --darkreader-inline-fill: #923540; --darkreader-inline-stroke: #a7ef72;" stroke-width="25" opacity="0.63" data-darkreader-inline-fill="" data-darkreader-inline-stroke=""></rect></svg>