<?xml version="1.0" standalone="no"?>
<svg viewBox="0 0 200 200" xmlns="http://www.w3.org/2000/svg">
  <path fill="#FF0066" d="M41.3,-67.8C54.2,-64.1,65.8,-54.4,74.4,-42.1C83,-29.8,88.6,-14.9,89.6,0.6C90.7,16.1,87.1,32.2,76.8,41.5C66.5,50.9,49.5,53.5,35.5,54C21.6,54.5,10.8,52.9,1.2,50.8C-8.4,48.8,-16.8,46.3,-29.5,45C-42.1,43.8,-59,43.8,-64.2,36.5C-69.4,29.2,-62.9,14.6,-62,0.5C-61,-13.5,-65.7,-27,-64.5,-41.4C-63.4,-55.8,-56.6,-70.9,-44.9,-75.4C-33.2,-79.8,-16.6,-73.4,-1.2,-71.3C14.2,-69.3,28.4,-71.6,41.3,-67.8Z" transform="translate(100 100)" />
</svg>
