<svg height="480.4" version="1.1" width="640.4000000000001" xmlns="http://www.w3.org/2000/svg" style="overflow: hidden; position: relative; top: -0.716667px;"><desc>Created with Raphaël 2.0.1</desc><defs></defs><rect x="0" y="0" width="640.4000000000001" height="480.4" r="0" rx="0" ry="0" fill="#bb821a" stroke="none" style="--darkreader-inline-fill: #946f2c; --darkreader-inline-stroke: none;" data-darkreader-inline-fill="" data-darkreader-inline-stroke=""></rect><rect x="668" y="557" width="154" height="95" r="5" rx="5" ry="5" fill="#bdb2a0" stroke="#985fe2" transform="matrix(1,0,0,1,-77,-47.5)" style="opacity: 0.31; --darkreader-inline-fill: #5c5241; --darkreader-inline-stroke: #a376c4;" stroke-width="21" opacity="0.31" data-darkreader-inline-fill="" data-darkreader-inline-stroke=""></rect><rect x="441" y="465" width="72" height="156" r="5" rx="5" ry="5" fill="#bdb2a0" stroke="#985fe2" transform="matrix(1,0,0,1,-36,-78)" style="opacity: 0.31; --darkreader-inline-fill: #5c5241; --darkreader-inline-stroke: #a376c4;" stroke-width="21" opacity="0.31" data-darkreader-inline-fill="" data-darkreader-inline-stroke=""></rect><rect x="260" y="73" width="132" height="265" r="5" rx="5" ry="5" fill="#bdb2a0" stroke="#985fe2" transform="matrix(1,0,0,1,-66,-132.5)" style="opacity: 0.31; --darkreader-inline-fill: #5c5241; --darkreader-inline-stroke: #a376c4;" stroke-width="21" opacity="0.31" data-darkreader-inline-fill="" data-darkreader-inline-stroke=""></rect><rect x="454" y="313" width="133" height="242" r="5" rx="5" ry="5" fill="#bdb2a0" stroke="#985fe2" transform="matrix(1,0,0,1,-66.5,-121)" style="opacity: 0.31; --darkreader-inline-fill: #5c5241; --darkreader-inline-stroke: #a376c4;" stroke-width="21" opacity="0.31" data-darkreader-inline-fill="" data-darkreader-inline-stroke=""></rect><rect x="652" y="85" width="152" height="227" r="5" rx="5" ry="5" fill="#bdb2a0" stroke="#985fe2" transform="matrix(1,0,0,1,-76,-113.5)" style="opacity: 0.31; --darkreader-inline-fill: #5c5241; --darkreader-inline-stroke: #a376c4;" stroke-width="21" opacity="0.31" data-darkreader-inline-fill="" data-darkreader-inline-stroke=""></rect><rect x="316" y="123" width="116" height="147" r="5" rx="5" ry="5" fill="#bdb2a0" stroke="#985fe2" transform="matrix(1,0,0,1,-58,-73.5)" style="opacity: 0.31; --darkreader-inline-fill: #5c5241; --darkreader-inline-stroke: #a376c4;" stroke-width="21" opacity="0.31" data-darkreader-inline-fill="" data-darkreader-inline-stroke=""></rect><rect x="314" y="80" width="115" height="133" r="5" rx="5" ry="5" fill="#bdb2a0" stroke="#985fe2" transform="matrix(1,0,0,1,-57.5,-66.5)" style="opacity: 0.31; --darkreader-inline-fill: #5c5241; --darkreader-inline-stroke: #a376c4;" stroke-width="21" opacity="0.31" data-darkreader-inline-fill="" data-darkreader-inline-stroke=""></rect><rect x="454" y="230" width="204" height="66" r="5" rx="5" ry="5" fill="#bdb2a0" stroke="#985fe2" transform="matrix(1,0,0,1,-102,-33)" style="opacity: 0.31; --darkreader-inline-fill: #5c5241; --darkreader-inline-stroke: #a376c4;" stroke-width="21" opacity="0.31" data-darkreader-inline-fill="" data-darkreader-inline-stroke=""></rect><rect x="435" y="96" width="31" height="98" r="5" rx="5" ry="5" fill="#bdb2a0" stroke="#985fe2" transform="matrix(1,0,0,1,-15.5,-49)" style="opacity: 0.31; --darkreader-inline-fill: #5c5241; --darkreader-inline-stroke: #a376c4;" stroke-width="21" opacity="0.31" data-darkreader-inline-fill="" data-darkreader-inline-stroke=""></rect><rect x="511" y="390" width="286" height="317" r="5" rx="5" ry="5" fill="#bdb2a0" stroke="#985fe2" transform="matrix(1,0,0,1,-143,-158.5)" style="opacity: 0.31; --darkreader-inline-fill: #5c5241; --darkreader-inline-stroke: #a376c4;" stroke-width="21" opacity="0.31" data-darkreader-inline-fill="" data-darkreader-inline-stroke=""></rect><rect x="205" y="141" width="132" height="66" r="5" rx="5" ry="5" fill="#bdb2a0" stroke="#985fe2" transform="matrix(1,0,0,1,-66,-33)" style="opacity: 0.31; --darkreader-inline-fill: #5c5241; --darkreader-inline-stroke: #a376c4;" stroke-width="21" opacity="0.31" data-darkreader-inline-fill="" data-darkreader-inline-stroke=""></rect><rect x="428" y="63" width="85" height="110" r="5" rx="5" ry="5" fill="#bdb2a0" stroke="#985fe2" transform="matrix(1,0,0,1,-42.5,-55)" style="opacity: 0.31; --darkreader-inline-fill: #5c5241; --darkreader-inline-stroke: #a376c4;" stroke-width="21" opacity="0.31" data-darkreader-inline-fill="" data-darkreader-inline-stroke=""></rect><rect x="52" y="-47" width="45" height="203" r="5" rx="5" ry="5" fill="#bdb2a0" stroke="#985fe2" transform="matrix(1,0,0,1,-22.5,-101.5)" style="opacity: 0.31; --darkreader-inline-fill: #5c5241; --darkreader-inline-stroke: #a376c4;" stroke-width="21" opacity="0.31" data-darkreader-inline-fill="" data-darkreader-inline-stroke=""></rect><rect x="11" y="389" width="222" height="44" r="5" rx="5" ry="5" fill="#bdb2a0" stroke="#985fe2" transform="matrix(1,0,0,1,-111,-22)" style="opacity: 0.31; --darkreader-inline-fill: #5c5241; --darkreader-inline-stroke: #a376c4;" stroke-width="21" opacity="0.31" data-darkreader-inline-fill="" data-darkreader-inline-stroke=""></rect><rect x="-3" y="-62" width="45" height="297" r="5" rx="5" ry="5" fill="#bdb2a0" stroke="#985fe2" transform="matrix(1,0,0,1,-22.5,-148.5)" style="opacity: 0.31; --darkreader-inline-fill: #5c5241; --darkreader-inline-stroke: #a376c4;" stroke-width="21" opacity="0.31" data-darkreader-inline-fill="" data-darkreader-inline-stroke=""></rect><rect x="325" y="339" width="222" height="76" r="5" rx="5" ry="5" fill="#bdb2a0" stroke="#985fe2" transform="matrix(1,0,0,1,-111,-38)" style="opacity: 0.31; --darkreader-inline-fill: #5c5241; --darkreader-inline-stroke: #a376c4;" stroke-width="21" opacity="0.31" data-darkreader-inline-fill="" data-darkreader-inline-stroke=""></rect><rect x="163" y="-27" width="161" height="168" r="5" rx="5" ry="5" fill="#bdb2a0" stroke="#985fe2" transform="matrix(1,0,0,1,-80.5,-84)" style="opacity: 0.31; --darkreader-inline-fill: #5c5241; --darkreader-inline-stroke: #a376c4;" stroke-width="21" opacity="0.31" data-darkreader-inline-fill="" data-darkreader-inline-stroke=""></rect><rect x="76" y="208" width="124" height="37" r="5" rx="5" ry="5" fill="#bdb2a0" stroke="#985fe2" transform="matrix(1,0,0,1,-62,-18.5)" style="opacity: 0.31; --darkreader-inline-fill: #5c5241; --darkreader-inline-stroke: #a376c4;" stroke-width="21" opacity="0.31" data-darkreader-inline-fill="" data-darkreader-inline-stroke=""></rect><rect x="162" y="530" width="178" height="167" r="5" rx="5" ry="5" fill="#bdb2a0" stroke="#985fe2" transform="matrix(1,0,0,1,-89,-83.5)" style="opacity: 0.31; --darkreader-inline-fill: #5c5241; --darkreader-inline-stroke: #a376c4;" stroke-width="21" opacity="0.31" data-darkreader-inline-fill="" data-darkreader-inline-stroke=""></rect><rect x="-17" y="469" width="68" height="221" r="5" rx="5" ry="5" fill="#bdb2a0" stroke="#985fe2" transform="matrix(1,0,0,1,-34,-110.5)" style="opacity: 0.31; --darkreader-inline-fill: #5c5241; --darkreader-inline-stroke: #a376c4;" stroke-width="21" opacity="0.31" data-darkreader-inline-fill="" data-darkreader-inline-stroke=""></rect><rect x="442" y="566" width="127" height="41" r="5" rx="5" ry="5" fill="#bdb2a0" stroke="#985fe2" transform="matrix(1,0,0,1,-63.5,-20.5)" style="opacity: 0.31; --darkreader-inline-fill: #5c5241; --darkreader-inline-stroke: #a376c4;" stroke-width="21" opacity="0.31" data-darkreader-inline-fill="" data-darkreader-inline-stroke=""></rect><rect x="343" y="279" width="264" height="136" r="5" rx="5" ry="5" fill="#bdb2a0" stroke="#985fe2" transform="matrix(1,0,0,1,-132,-68)" style="opacity: 0.31; --darkreader-inline-fill: #5c5241; --darkreader-inline-stroke: #a376c4;" stroke-width="21" opacity="0.31" data-darkreader-inline-fill="" data-darkreader-inline-stroke=""></rect><rect x="49" y="529" width="53" height="70" r="5" rx="5" ry="5" fill="#bdb2a0" stroke="#985fe2" transform="matrix(1,0,0,1,-26.5,-35)" style="opacity: 0.31; --darkreader-inline-fill: #5c5241; --darkreader-inline-stroke: #a376c4;" stroke-width="21" opacity="0.31" data-darkreader-inline-fill="" data-darkreader-inline-stroke=""></rect><rect x="224" y="498" width="100" height="22" r="5" rx="5" ry="5" fill="#bdb2a0" stroke="#985fe2" transform="matrix(1,0,0,1,-50,-11)" style="opacity: 0.31; --darkreader-inline-fill: #5c5241; --darkreader-inline-stroke: #a376c4;" stroke-width="21" opacity="0.31" data-darkreader-inline-fill="" data-darkreader-inline-stroke=""></rect><rect x="226" y="221" width="211" height="105" r="5" rx="5" ry="5" fill="#bdb2a0" stroke="#985fe2" transform="matrix(1,0,0,1,-105.5,-52.5)" style="opacity: 0.31; --darkreader-inline-fill: #5c5241; --darkreader-inline-stroke: #a376c4;" stroke-width="21" opacity="0.31" data-darkreader-inline-fill="" data-darkreader-inline-stroke=""></rect><rect x="37" y="48" width="20" height="154" r="5" rx="5" ry="5" fill="#bdb2a0" stroke="#985fe2" transform="matrix(1,0,0,1,-10,-77)" style="opacity: 0.31; --darkreader-inline-fill: #5c5241; --darkreader-inline-stroke: #a376c4;" stroke-width="21" opacity="0.31" data-darkreader-inline-fill="" data-darkreader-inline-stroke=""></rect><rect x="91" y="74" width="282" height="276" r="5" rx="5" ry="5" fill="#bdb2a0" stroke="#985fe2" transform="matrix(1,0,0,1,-141,-138)" style="opacity: 0.31; --darkreader-inline-fill: #5c5241; --darkreader-inline-stroke: #a376c4;" stroke-width="21" opacity="0.31" data-darkreader-inline-fill="" data-darkreader-inline-stroke=""></rect><rect x="10" y="431" width="149" height="178" r="5" rx="5" ry="5" fill="#bdb2a0" stroke="#985fe2" transform="matrix(1,0,0,1,-74.5,-89)" style="opacity: 0.31; --darkreader-inline-fill: #5c5241; --darkreader-inline-stroke: #a376c4;" stroke-width="21" opacity="0.31" data-darkreader-inline-fill="" data-darkreader-inline-stroke=""></rect><rect x="676" y="53" width="216" height="67" r="5" rx="5" ry="5" fill="#bdb2a0" stroke="#985fe2" transform="matrix(1,0,0,1,-108,-33.5)" style="opacity: 0.31; --darkreader-inline-fill: #5c5241; --darkreader-inline-stroke: #a376c4;" stroke-width="21" opacity="0.31" data-darkreader-inline-fill="" data-darkreader-inline-stroke=""></rect><rect x="511" y="446" width="110" height="141" r="5" rx="5" ry="5" fill="#bdb2a0" stroke="#985fe2" transform="matrix(1,0,0,1,-55,-70.5)" style="opacity: 0.31; --darkreader-inline-fill: #5c5241; --darkreader-inline-stroke: #a376c4;" stroke-width="21" opacity="0.31" data-darkreader-inline-fill="" data-darkreader-inline-stroke=""></rect><rect x="358" y="151" width="78" height="183" r="5" rx="5" ry="5" fill="#bdb2a0" stroke="#985fe2" transform="matrix(1,0,0,1,-39,-91.5)" style="opacity: 0.31; --darkreader-inline-fill: #5c5241; --darkreader-inline-stroke: #a376c4;" stroke-width="21" opacity="0.31" data-darkreader-inline-fill="" data-darkreader-inline-stroke=""></rect><rect x="452" y="404" width="31" height="265" r="5" rx="5" ry="5" fill="#bdb2a0" stroke="#985fe2" transform="matrix(1,0,0,1,-15.5,-132.5)" style="opacity: 0.31; --darkreader-inline-fill: #5c5241; --darkreader-inline-stroke: #a376c4;" stroke-width="21" opacity="0.31" data-darkreader-inline-fill="" data-darkreader-inline-stroke=""></rect><rect x="645" y="323" width="218" height="65" r="5" rx="5" ry="5" fill="#bdb2a0" stroke="#985fe2" transform="matrix(1,0,0,1,-109,-32.5)" style="opacity: 0.31; --darkreader-inline-fill: #5c5241; --darkreader-inline-stroke: #a376c4;" stroke-width="21" opacity="0.31" data-darkreader-inline-fill="" data-darkreader-inline-stroke=""></rect><rect x="371" y="-18" width="132" height="229" r="5" rx="5" ry="5" fill="#bdb2a0" stroke="#985fe2" transform="matrix(1,0,0,1,-66,-114.5)" style="opacity: 0.31; --darkreader-inline-fill: #5c5241; --darkreader-inline-stroke: #a376c4;" stroke-width="21" opacity="0.31" data-darkreader-inline-fill="" data-darkreader-inline-stroke=""></rect><rect x="392" y="430" width="147" height="177" r="5" rx="5" ry="5" fill="#bdb2a0" stroke="#985fe2" transform="matrix(1,0,0,1,-73.5,-88.5)" style="opacity: 0.31; --darkreader-inline-fill: #5c5241; --darkreader-inline-stroke: #a376c4;" stroke-width="21" opacity="0.31" data-darkreader-inline-fill="" data-darkreader-inline-stroke=""></rect><rect x="210" y="-89" width="195" height="283" r="5" rx="5" ry="5" fill="#bdb2a0" stroke="#985fe2" transform="matrix(1,0,0,1,-97.5,-141.5)" style="opacity: 0.31; --darkreader-inline-fill: #5c5241; --darkreader-inline-stroke: #a376c4;" stroke-width="21" opacity="0.31" data-darkreader-inline-fill="" data-darkreader-inline-stroke=""></rect><rect x="331" y="388" width="221" height="221" r="5" rx="5" ry="5" fill="#bdb2a0" stroke="#985fe2" transform="matrix(1,0,0,1,-110.5,-110.5)" style="opacity: 0.31; --darkreader-inline-fill: #5c5241; --darkreader-inline-stroke: #a376c4;" stroke-width="21" opacity="0.31" data-darkreader-inline-fill="" data-darkreader-inline-stroke=""></rect><rect x="515" y="350" width="173" height="26" r="5" rx="5" ry="5" fill="#bdb2a0" stroke="#985fe2" transform="matrix(1,0,0,1,-86.5,-13)" style="opacity: 0.31; --darkreader-inline-fill: #5c5241; --darkreader-inline-stroke: #a376c4;" stroke-width="21" opacity="0.31" data-darkreader-inline-fill="" data-darkreader-inline-stroke=""></rect><rect x="621" y="-71" width="207" height="269" r="5" rx="5" ry="5" fill="#bdb2a0" stroke="#985fe2" transform="matrix(1,0,0,1,-103.5,-134.5)" style="opacity: 0.31; --darkreader-inline-fill: #5c5241; --darkreader-inline-stroke: #a376c4;" stroke-width="21" opacity="0.31" data-darkreader-inline-fill="" data-darkreader-inline-stroke=""></rect><rect x="337" y="65" width="89" height="115" r="5" rx="5" ry="5" fill="#bdb2a0" stroke="#985fe2" transform="matrix(1,0,0,1,-44.5,-57.5)" style="opacity: 0.31; --darkreader-inline-fill: #5c5241; --darkreader-inline-stroke: #a376c4;" stroke-width="21" opacity="0.31" data-darkreader-inline-fill="" data-darkreader-inline-stroke=""></rect><rect x="250" y="127" width="233" height="149" r="5" rx="5" ry="5" fill="#bdb2a0" stroke="#985fe2" transform="matrix(1,0,0,1,-116.5,-74.5)" style="opacity: 0.31; --darkreader-inline-fill: #5c5241; --darkreader-inline-stroke: #a376c4;" stroke-width="21" opacity="0.31" data-darkreader-inline-fill="" data-darkreader-inline-stroke=""></rect><rect x="85" y="158" width="293" height="222" r="5" rx="5" ry="5" fill="#bdb2a0" stroke="#985fe2" transform="matrix(1,0,0,1,-146.5,-111)" style="opacity: 0.31; --darkreader-inline-fill: #5c5241; --darkreader-inline-stroke: #a376c4;" stroke-width="21" opacity="0.31" data-darkreader-inline-fill="" data-darkreader-inline-stroke=""></rect><rect x="4" y="323" width="85" height="148" r="5" rx="5" ry="5" fill="#bdb2a0" stroke="#985fe2" transform="matrix(1,0,0,1,-42.5,-74)" style="opacity: 0.31; --darkreader-inline-fill: #5c5241; --darkreader-inline-stroke: #a376c4;" stroke-width="21" opacity="0.31" data-darkreader-inline-fill="" data-darkreader-inline-stroke=""></rect></svg>