<?xml version="1.0" standalone="no"?>
<svg viewBox="0 0 200 200" xmlns="http://www.w3.org/2000/svg">
  <path fill="#0F62FE" d="M28.7,-36.2C43,-41.3,64.6,-45.5,64.7,-39.4C64.7,-33.2,43.3,-16.6,40.8,-1.4C38.4,13.8,54.9,27.5,53,30.4C51,33.3,30.5,25.3,18.6,19.7C6.7,14.1,3.3,10.8,-5.8,20.9C-15,31.1,-30,54.5,-35.6,56.5C-41.1,58.4,-37.2,38.8,-41,25.8C-44.8,12.8,-56.3,6.4,-60,-2.1C-63.6,-10.6,-59.3,-21.2,-51.8,-27.8C-44.3,-34.3,-33.5,-36.9,-24.4,-34.8C-15.2,-32.6,-7.6,-25.7,-0.2,-25.4C7.1,-25,14.3,-31,28.7,-36.2Z" transform="translate(100 100)" />
</svg>
